<svg xmlns="http://www.w3.org/2000/svg" width="141" height="50" fill="none"><g fill="#0DA861" clip-path="url(#a)"><path d="M19.98 26.204c0-5.355-3.792-10.075-9.757-10.075-5.846 0-10.192 4.6-10.192 10.947S4.495 38.103 10.5 38.103c4.306 0 7.703-2.34 9.007-5.236l-2.963-1.586c-1.106 2.141-3.042 3.728-6.005 3.728-3.674 0-6.794-2.697-6.952-6.862h16.236c.118-.674.158-1.348.158-1.943m-16.314-.992c.474-3.808 3.278-6.069 6.557-6.069 3.082 0 5.965 2.579 6.005 6.069zM37.383 16.606l-6.163 16.34-6.162-16.34h-3.792l8.375 21.021h3.12l8.414-21.022zM44.428 12.719h3.397v-4.64h-3.397zM40.95 46.354c3.832 0 6.874-2.42 6.874-6.902V16.606h-3.397v22.846c0 2.539-1.58 3.848-3.714 3.848-.474 0-1.185-.04-1.698-.12v3.015c.513.119 1.422.159 1.935.159M79.11 12.719h3.397v-4.64h-3.398zm0 24.909h3.397V16.606h-3.398zM96.776 16.129c-2.567 0-4.819 1.07-6.044 2.895v-2.42h-3.318v21.023h3.397V24.895c0-3.292 2.094-5.474 5.215-5.474 3.16 0 5.175 2.142 5.175 5.474v12.732h3.397V23.784c0-4.403-3.279-7.655-7.822-7.655M118.174 37.863c.592 0 1.422-.04 2.094-.198v-2.776a9 9 0 0 1-1.462.118c-3.595 0-3.832-2.459-3.832-3.807V19.856h5.057v-3.253h-5.057V9.781h-3.397v3.729c0 1.864-1.185 3.093-3.003 3.093h-1.066v3.253h4.069V31.2c0 4.244 2.37 6.663 6.597 6.663M131.598 38.103c4.504 0 7.625-2.5 7.625-6.148 0-2.816-1.896-4.879-5.412-5.91l-3.556-1.071c-1.817-.555-3.002-1.507-3.002-2.935 0-1.666 1.501-2.777 3.753-2.777 2.489 0 4.464 1.31 5.333 3.57l2.844-1.388c-1.224-3.292-4.306-5.315-8.177-5.315-4.346 0-7.269 2.459-7.269 6.108 0 2.856 1.817 4.879 5.333 5.87l3.437.952c1.936.556 3.2 1.389 3.2 2.896 0 1.745-1.659 3.014-4.109 3.014-2.607 0-4.859-1.388-5.925-4.045l-2.884 1.427c1.343 3.57 4.701 5.752 8.809 5.752"/><path fill-rule="evenodd" d="M62.02 3.405c-7.566 1.283-5.537 12.5 1.825 11.293 3.103-.506 5.215-3.47 4.688-6.6-.518-3.109-3.395-5.22-6.513-4.693m5.822 6.654c-1.487 6.623-11.284 4.397-9.834-2.158.586-2.663 3.29-4.368 5.958-3.794 2.637.573 4.485 3.236 3.876 5.952" clip-rule="evenodd"/><path fill-rule="evenodd" d="M61.963.988c-5.996.709-9.091 7.377-5.913 12.507 2.254 3.643 4.125 6.668 4.538 11.142.06.694.068 4.533.774 4.556 1.33.045-.278-7.717-.624-8.766-.826-2.512-2.103-4.827-3.538-7.03-3.63-5.59.54-12.371 6.851-11.368a7.11 7.11 0 0 1 5.62 4.805c1.833 5.643-3.088 6.955-5.079 15.223-.18.762-1.029 6.45-.518 7 1.42 1.539.263-4.541 2.607-10.07a29 29 0 0 1 1.796-3.485c.66-1.102 1.487-2.12 1.975-3.305 2.36-5.763-2.359-11.933-8.49-11.21" clip-rule="evenodd"/><path fill-rule="evenodd" d="M61.84 9.409c.497.075 1.053-.008 1.579-.008-.21.702-1.09 1.87-1.225 2.716-.113.679.3.814.691.316.316-.407 1.533-2.904 1.616-3.349.075-.392-.21-.52-.466-.52l-1.495-.008c.165-.686.961-1.63 1.254-2.451.421-1.192-.443-1.08-.788-.423l-.67 1.298c-.285.55-.638 1.124-.916 1.735-.143.316-.09.61.42.694M52.375 27.316c0-4.079 1.96-7.396 4.977-9.208.469 1.049.88 2.124 1.223 3.252-1.65 1.35-2.684 3.488-2.684 5.994 0 4.307 3.053 7.527 7.033 7.527s7.033-3.22 7.033-7.527c0-2.51-1.038-4.652-2.692-6.002a25 25 0 0 1 1.16-3.286c3.058 1.803 5.048 5.14 5.048 9.25 0 6.246-4.637 10.785-10.549 10.785s-10.549-4.539-10.549-10.785" clip-rule="evenodd"/></g><rect width="6.755" height="6.785" x="132.294" y="7.97" stroke="#1E1E1E" stroke-width=".432" rx="3.378"/><path fill="#1E1E1E" d="M134.703 12.744V9.977h.913q.318 0 .52.11a.7.7 0 0 1 .301.302.95.95 0 0 1 .098.436.93.93 0 0 1-.098.434.7.7 0 0 1-.299.297 1.1 1.1 0 0 1-.516.107h-.739v-.303h.728a.8.8 0 0 0 .349-.064.4.4 0 0 0 .192-.184.6.6 0 0 0 .061-.287q0-.165-.061-.29a.4.4 0 0 0-.194-.192.8.8 0 0 0-.352-.07h-.576v2.471zm1.272-1.243.665 1.243h-.38l-.654-1.243zM54.853 41.483h.868v3.775q0 .603-.283 1.068a2 2 0 0 1-.796.728q-.513.264-1.202.264-.686 0-1.2-.264a2 2 0 0 1-.795-.728 2 2 0 0 1-.283-1.068v-3.775h.866v3.705q0 .39.17.692.175.302.491.477.317.17.751.17.438 0 .754-.17.319-.174.488-.477.17-.303.17-.692zm2.819 3.184v2.556h-.838v-4.305h.804v.7h.054a1.23 1.23 0 0 1 .465-.549q.319-.207.804-.207.44 0 .77.185.331.183.514.544.182.36.182.894v2.738h-.838v-2.637q0-.468-.244-.732-.244-.266-.67-.266-.291 0-.518.126a.9.9 0 0 0-.356.37 1.2 1.2 0 0 0-.129.583m3.8 2.556v-4.305h.837v4.305zm.423-4.969a.53.53 0 0 1-.376-.146.47.47 0 0 1-.154-.353q0-.207.154-.353a.53.53 0 0 1 .376-.148q.218 0 .372.148a.46.46 0 0 1 .157.353.47.47 0 0 1-.157.353.52.52 0 0 1-.372.146m3.511.664v.673h-2.432v-.673zm-1.765 4.305v-4.804q0-.403.176-.67.177-.268.468-.4.292-.135.634-.135.252 0 .431.042.18.04.267.073l-.197.678-.151-.039a.9.9 0 0 0-.224-.025q-.306 0-.437.151-.13.151-.13.438v4.69zm2.55 0v-4.305h.839v4.305zm.424-4.969a.53.53 0 0 1-.375-.146.47.47 0 0 1-.155-.353q0-.207.155-.353a.53.53 0 0 1 .375-.148q.219 0 .373.148a.46.46 0 0 1 .157.353.47.47 0 0 1-.157.353.52.52 0 0 1-.373.146m3.318 5.056q-.636 0-1.095-.272a1.84 1.84 0 0 1-.707-.771q-.246-.499-.246-1.169 0-.66.246-1.165.25-.506.695-.788a1.9 1.9 0 0 1 1.049-.283q.364 0 .706.12.342.121.613.379.273.258.43.67.156.409.156.995v.297h-3.422v-.628h2.601q0-.33-.135-.586a1.02 1.02 0 0 0-.944-.555q-.352 0-.616.174a1.17 1.17 0 0 0-.404.448q-.14.276-.14.597v.49q0 .432.151.735.154.303.429.462.275.157.642.157.238 0 .434-.067a.9.9 0 0 0 .558-.547l.793.144a1.44 1.44 0 0 1-.342.613q-.244.261-.614.407a2.3 2.3 0 0 1-.838.142m4.31-.003q-.522 0-.931-.267a1.8 1.8 0 0 1-.64-.764q-.228-.5-.229-1.197 0-.698.233-1.194.235-.495.644-.76.41-.263.928-.263.4 0 .644.135.247.13.382.308.137.176.213.311h.05v-2.133h.838v5.74h-.818v-.67h-.07q-.076.137-.22.314-.139.176-.386.308-.246.132-.639.132m.184-.715a.98.98 0 0 0 .611-.19 1.2 1.2 0 0 0 .381-.536q.132-.342.132-.796 0-.448-.129-.784a1.15 1.15 0 0 0-.378-.524 1 1 0 0 0-.617-.188 1 1 0 0 0-.63.196q-.253.196-.381.535a2.2 2.2 0 0 0-.126.765q0 .432.128.777.129.345.381.546a1 1 0 0 0 .628.2m5.142.63v-5.739h3.598v.746h-2.732v1.749h2.544v.742h-2.544v1.757H83.2v.746zm5.177-5.739 1.598 4.675h.064l1.597-4.675h.937l-2.066 5.74h-1l-2.066-5.74zm8.7 5.827q-.624 0-1.075-.284a1.88 1.88 0 0 1-.69-.787 2.6 2.6 0 0 1-.24-1.149q0-.656.246-1.157a1.9 1.9 0 0 1 .695-.788 1.94 1.94 0 0 1 1.056-.283q.49 0 .875.182.383.18.62.505t.282.76H94.4a.98.98 0 0 0-.309-.522q-.237-.219-.639-.219a1.04 1.04 0 0 0-.613.185 1.2 1.2 0 0 0-.407.522 2 2 0 0 0-.145.795q0 .471.143.813t.403.53q.264.188.62.188.237 0 .431-.087a.9.9 0 0 0 .328-.255.96.96 0 0 0 .188-.398h.815q-.045.417-.272.745t-.608.516a2 2 0 0 1-.888.188m3.424-2.643v2.556h-.838v-5.74h.827v2.136h.053q.151-.348.463-.552.31-.205.812-.205.443 0 .774.182.333.183.515.544.185.36.185.897v2.738h-.838v-2.637q0-.473-.243-.735-.244-.263-.679-.263a1.1 1.1 0 0 0-.532.126.9.9 0 0 0-.367.37 1.2 1.2 0 0 0-.132.583m5.083 2.65a1.8 1.8 0 0 1-.74-.15 1.25 1.25 0 0 1-.524-.446 1.3 1.3 0 0 1-.19-.715q0-.363.14-.6.14-.234.378-.372.239-.136.533-.207t.599-.107l.628-.073a.9.9 0 0 0 .35-.098q.11-.067.11-.218v-.02q0-.367-.208-.569-.204-.201-.611-.202-.423 0-.667.188-.24.184-.333.412l-.787-.18q.14-.39.409-.633.271-.243.625-.353.353-.112.742-.112.258 0 .547.062.291.059.543.218.255.161.418.457.162.294.162.765v2.859h-.818v-.589h-.033a1.2 1.2 0 0 1-.244.32 1.3 1.3 0 0 1-.418.26 1.6 1.6 0 0 1-.611.104m.182-.672q.348 0 .594-.137a.96.96 0 0 0 .379-.359.93.93 0 0 0 .132-.479v-.555a.44.44 0 0 1-.174.084 3 3 0 0 1-.289.065 30 30 0 0 1-.574.081q-.244.03-.446.104a.76.76 0 0 0-.319.21.52.52 0 0 0-.118.359q0 .31.23.47.23.157.585.157m2.98.578v-4.305h.809v.684h.045q.118-.348.415-.546.3-.202.678-.202a4 4 0 0 1 .356.02v.8a2 2 0 0 0-.179-.03 2 2 0 0 0-.258-.02q-.297 0-.53.127a.94.94 0 0 0-.499.843v2.629zm4.6 1.703a2.6 2.6 0 0 1-.883-.134 1.7 1.7 0 0 1-.6-.356 1.5 1.5 0 0 1-.347-.485l.72-.297q.076.124.202.26.13.141.347.239.222.098.569.098.477 0 .788-.232.31-.23.311-.735v-.846h-.053a2 2 0 0 1-.219.305q-.14.169-.387.292-.246.123-.641.123-.51 0-.92-.238a1.7 1.7 0 0 1-.644-.709q-.236-.471-.236-1.157 0-.687.233-1.177.236-.491.645-.751.409-.264.927-.264.4 0 .648.135.246.13.383.308.141.176.216.311h.062v-.698h.821v4.4q0 .555-.258.91a1.5 1.5 0 0 1-.698.528q-.437.17-.986.17m-.008-2.463q.361 0 .61-.168.253-.17.382-.488a2 2 0 0 0 .131-.765q0-.434-.129-.765a1.14 1.14 0 0 0-.378-.515 1 1 0 0 0-.616-.188 1 1 0 0 0-.631.196 1.2 1.2 0 0 0-.381.527q-.126.333-.126.745 0 .423.129.743a1.1 1.1 0 0 0 .381.499q.255.18.628.18m2.995.76v-4.305h.838v4.305zm.423-4.969a.53.53 0 0 1-.376-.146.48.48 0 0 1-.154-.353.47.47 0 0 1 .154-.353.53.53 0 0 1 .376-.148q.219 0 .373.148a.472.472 0 0 1 0 .706.52.52 0 0 1-.373.146m2.301 2.413v2.556h-.838v-4.305h.804v.7h.054q.149-.34.465-.549.32-.207.804-.207.44 0 .771.185.33.183.513.544.182.36.182.894v2.738h-.838v-2.637q0-.468-.244-.732-.244-.266-.67-.266-.291 0-.518.126a.9.9 0 0 0-.356.37 1.2 1.2 0 0 0-.129.583m5.604 4.26a2.6 2.6 0 0 1-.882-.135 1.7 1.7 0 0 1-.6-.356 1.5 1.5 0 0 1-.348-.485l.721-.297q.075.124.201.26.129.141.348.239.22.098.569.098.476 0 .787-.232.311-.23.311-.735v-.846h-.053q-.075.137-.219.305-.14.169-.386.292-.248.123-.642.123-.51 0-.919-.238a1.7 1.7 0 0 1-.645-.709q-.235-.471-.235-1.157 0-.687.232-1.177.235-.491.645-.751.41-.264.928-.264.4 0 .647.135.246.13.384.308.14.176.216.311h.061v-.698h.821v4.4q0 .555-.258.91a1.5 1.5 0 0 1-.697.528q-.438.17-.987.17m-.008-2.464q.362 0 .611-.168.252-.17.381-.488a2 2 0 0 0 .132-.765q0-.434-.129-.765a1.13 1.13 0 0 0-.379-.515 1 1 0 0 0-.616-.188 1 1 0 0 0-.631.196 1.2 1.2 0 0 0-.381.527q-.126.333-.126.745 0 .423.129.743a1.1 1.1 0 0 0 .381.499q.255.18.628.18m6.257.855q-.409 0-.739-.151a1.24 1.24 0 0 1-.524-.446 1.27 1.27 0 0 1-.191-.715q0-.363.14-.6.14-.234.378-.372.239-.136.533-.207t.6-.107l.627-.073a.9.9 0 0 0 .351-.098q.109-.067.109-.218v-.02q0-.367-.208-.569-.204-.201-.61-.202-.424 0-.667.188-.241.184-.334.412l-.787-.18q.14-.39.409-.633.271-.243.625-.353.353-.112.742-.112.258 0 .547.062.291.059.543.218.255.161.418.457.163.294.163.765v2.859h-.819v-.589h-.033a1.2 1.2 0 0 1-.244.32 1.3 1.3 0 0 1-.418.26q-.255.105-.611.104m.183-.673q.347 0 .594-.137a.96.96 0 0 0 .378-.359.93.93 0 0 0 .132-.479v-.555a.44.44 0 0 1-.174.084q-.126.037-.289.065l-.316.047-.258.034q-.244.03-.446.104a.77.77 0 0 0-.319.21.52.52 0 0 0-.118.359q0 .31.23.47.23.157.586.157m2.979 2.192v-5.919h.818v.698h.07q.074-.135.21-.311a1.2 1.2 0 0 1 .381-.308q.244-.135.645-.135.521 0 .93.264.41.262.642.759.235.496.235 1.194 0 .697-.232 1.197-.233.495-.639.764-.406.267-.928.267-.392 0-.641-.132a1.2 1.2 0 0 1-.387-.308 2.3 2.3 0 0 1-.216-.314h-.05v2.284zm.821-3.767q0 .454.132.796.13.342.381.536.25.19.611.19a.98.98 0 0 0 .627-.199q.252-.201.381-.546.132-.345.132-.777 0-.426-.129-.765a1.17 1.17 0 0 0-.381-.535 1 1 0 0 0-.63-.196q-.365 0-.617.188-.249.188-.378.524a2.2 2.2 0 0 0-.129.784m3.97 3.767v-5.919h.819v.698h.07a2 2 0 0 1 .21-.311q.136-.177.381-.308.244-.135.645-.135.52 0 .93.264.41.262.642.759.235.496.235 1.194 0 .697-.233 1.197a1.8 1.8 0 0 1-.638.764 1.66 1.66 0 0 1-.928.267q-.393 0-.642-.132a1.2 1.2 0 0 1-.387-.308 2.3 2.3 0 0 1-.215-.314h-.051v2.284zm.821-3.767q0 .454.132.796t.381.536q.25.19.611.19.376 0 .628-.199.252-.201.381-.546.132-.345.132-.777 0-.426-.129-.765a1.17 1.17 0 0 0-.381-.535 1 1 0 0 0-.631-.196q-.364 0-.616.188a1.15 1.15 0 0 0-.379.524 2.2 2.2 0 0 0-.129.784"/><defs><clipPath id="a"><path fill="#fff" d="M0 .777h139.258V46.51H0z"/></clipPath></defs></svg>