<svg width="184" height="24" viewBox="0 0 184 24" fill="none" xmlns="http://www.w3.org/2000/svg">
<g clip-path="url(#clip0_419_4939)">
<path d="M23.9374 9.20622C23.7803 8.72024 23.3493 8.37508 22.8393 8.32912L15.9123 7.70014L13.1731 1.2889C12.9712 0.819039 12.5112 0.514893 12.0001 0.514893C11.4891 0.514893 11.0291 0.819039 10.8271 1.29L8.08797 7.70014L1.15982 8.32912C0.650771 8.37618 0.220828 8.72024 0.0628038 9.20622C-0.0952203 9.69219 0.0507185 10.2252 0.435799 10.5612L5.67183 15.1533L4.12785 21.9545C4.01487 22.4546 4.20897 22.9715 4.6239 23.2715C4.84692 23.4326 5.10786 23.5146 5.37099 23.5146C5.59786 23.5146 5.8229 23.4535 6.02487 23.3326L12.0001 19.7614L17.9732 23.3326C18.4103 23.5956 18.9612 23.5716 19.3753 23.2715C19.7904 22.9706 19.9843 22.4535 19.8713 21.9545L18.3273 15.1533L23.5633 10.5621C23.9484 10.2252 24.0955 9.69311 23.9374 9.20622Z" fill="#FBBF24"/>
</g>
<g clip-path="url(#clip1_419_4939)">
<path d="M63.9374 9.20622C63.7803 8.72024 63.3493 8.37508 62.8393 8.32912L55.9123 7.70014L53.1731 1.2889C52.9712 0.819039 52.5112 0.514893 52.0001 0.514893C51.4891 0.514893 51.0291 0.819039 50.8271 1.29L48.088 7.70014L41.1598 8.32912C40.6508 8.37618 40.2208 8.72024 40.0628 9.20622C39.9048 9.69219 40.0507 10.2252 40.4358 10.5612L45.6718 15.1533L44.1278 21.9545C44.0149 22.4546 44.209 22.9715 44.6239 23.2715C44.8469 23.4326 45.1079 23.5146 45.371 23.5146C45.5979 23.5146 45.8229 23.4535 46.0249 23.3326L52.0001 19.7614L57.9732 23.3326C58.4103 23.5956 58.9612 23.5716 59.3752 23.2715C59.7904 22.9706 59.9843 22.4535 59.8713 21.9545L58.3273 15.1533L63.5633 10.5621C63.9484 10.2252 64.0955 9.69311 63.9374 9.20622Z" fill="#FBBF24"/>
</g>
<g clip-path="url(#clip2_419_4939)">
<path d="M103.937 9.20622C103.78 8.72024 103.349 8.37508 102.839 8.32912L95.9123 7.70014L93.1731 1.2889C92.9712 0.819039 92.5112 0.514893 92.0001 0.514893C91.4891 0.514893 91.0291 0.819039 90.8271 1.29L88.088 7.70014L81.1598 8.32912C80.6508 8.37618 80.2208 8.72024 80.0628 9.20622C79.9048 9.69219 80.0507 10.2252 80.4358 10.5612L85.6718 15.1533L84.1278 21.9545C84.0149 22.4546 84.209 22.9715 84.6239 23.2715C84.8469 23.4326 85.1079 23.5146 85.371 23.5146C85.5979 23.5146 85.8229 23.4535 86.0249 23.3326L92.0001 19.7614L97.9732 23.3326C98.4103 23.5956 98.9612 23.5716 99.3752 23.2715C99.7904 22.9706 99.9843 22.4535 99.8713 21.9545L98.3273 15.1533L103.563 10.5621C103.948 10.2252 104.095 9.69311 103.937 9.20622Z" fill="#FBBF24"/>
</g>
<g clip-path="url(#clip3_419_4939)">
<path d="M143.937 9.20622C143.78 8.72024 143.349 8.37508 142.839 8.32912L135.912 7.70014L133.173 1.2889C132.971 0.819039 132.511 0.514893 132 0.514893C131.489 0.514893 131.029 0.819039 130.827 1.29L128.088 7.70014L121.16 8.32912C120.651 8.37618 120.221 8.72024 120.063 9.20622C119.905 9.69219 120.051 10.2252 120.436 10.5612L125.672 15.1533L124.128 21.9545C124.015 22.4546 124.209 22.9715 124.624 23.2715C124.847 23.4326 125.108 23.5146 125.371 23.5146C125.598 23.5146 125.823 23.4535 126.025 23.3326L132 19.7614L137.973 23.3326C138.41 23.5956 138.961 23.5716 139.375 23.2715C139.79 22.9706 139.984 22.4535 139.871 21.9545L138.327 15.1533L143.563 10.5621C143.948 10.2252 144.095 9.69311 143.937 9.20622Z" fill="#FBBF24"/>
</g>
<g clip-path="url(#clip4_419_4939)">
<path d="M183.462 9.36002L183.462 9.36057C183.558 9.65705 183.469 9.9805 183.234 10.1858L183.234 10.1862L177.998 14.7773L177.774 14.9736L177.84 15.264L179.384 22.0649C179.453 22.3693 179.334 22.6835 179.082 22.8666L179.082 22.8666C178.83 23.0494 178.496 23.0634 178.231 22.9042L178.23 22.9035L172.257 19.3323L172 19.1789L171.744 19.3322L165.768 22.9034L165.768 22.9036C165.644 22.9781 165.507 23.0146 165.371 23.0146C165.212 23.0146 165.054 22.9654 164.917 22.8662C164.665 22.6842 164.547 22.3707 164.616 22.065C164.616 22.0649 164.616 22.0648 164.616 22.0647L166.159 15.264L166.225 14.9736L166.002 14.7774L160.765 10.1853L160.765 10.1845C160.531 9.98086 160.442 9.65723 160.538 9.36083C160.635 9.06472 160.896 8.85586 161.205 8.82704C161.206 8.82702 161.206 8.82701 161.206 8.82699L168.133 8.19809L168.43 8.1711L168.548 7.89661L171.287 1.48707C171.287 1.48695 171.287 1.48683 171.287 1.48672C171.41 1.19888 171.69 1.01489 172 1.01489C172.31 1.01489 172.59 1.19902 172.714 1.48584C172.714 1.48601 172.714 1.48618 172.714 1.48636L175.452 7.89658L175.57 8.17109L175.867 8.19809L182.794 8.82707L182.794 8.8271C183.105 8.85505 183.366 9.06452 183.462 9.36002Z" stroke="#FBBF24"/>
<path d="M173.173 1.2889L175.912 7.70014L177.973 15.1533L179.871 21.9545C179.984 22.4535 179.79 22.9706 179.375 23.2715C178.961 23.5716 178.41 23.5956 177.973 23.3326L172 19.7614L166.025 23.3326C165.823 23.4535 165.598 23.5146 165.371 23.5146C165.108 23.5146 164.847 23.4326 164.624 23.2715C164.209 22.9715 164.015 22.4546 164.128 21.9545L165.672 15.1533L160.436 10.5612C160.051 10.2252 159.905 9.69219 160.063 9.20622C160.221 8.72024 160.651 8.37618 161.16 8.32912L168.088 7.70014L170.827 1.29C171.029 0.819039 171.489 0.514893 172 0.514893C172.511 0.514893 172.971 0.819039 173.173 1.2889Z" fill="#FBBF24"/>
</g>
<defs>
<clipPath id="clip0_419_4939">
<rect width="24" height="24" fill="white"/>
</clipPath>
<clipPath id="clip1_419_4939">
<rect width="24" height="24" fill="white" transform="translate(40)"/>
</clipPath>
<clipPath id="clip2_419_4939">
<rect width="24" height="24" fill="white" transform="translate(80)"/>
</clipPath>
<clipPath id="clip3_419_4939">
<rect width="24" height="24" fill="white" transform="translate(120)"/>
</clipPath>
<clipPath id="clip4_419_4939">
<rect width="24" height="24" fill="white" transform="translate(160)"/>
</clipPath>
</defs>
</svg>
