<svg xmlns="http://www.w3.org/2000/svg" xmlns:xlink="http://www.w3.org/1999/xlink" id="Layer_1" x="0px" y="0px" viewBox="0 0 3285.4 1056.2" style="enable-background:new 0 0 3285.4 1056.2;" xml:space="preserve"><style type="text/css">	.st0{fill:#410099;}	.st1{fill:#FFFFFF;}	.st2{fill:#8EFF45;}	.st3{fill:#38D430;}</style><g>	<g>		<path class="st0" d="M818.9,832L592.2,962.9c-61.8,35.7-138,35.7-199.8,0L165.7,832c-61.8-35.7-99.9-101.6-99.9-173V397.2   c0-71.4,38.1-137.4,99.9-173.1L392.4,93.2c61.8-35.7,138-35.7,199.8,0l226.7,130.9c61.8,35.7,99.9,101.7,99.9,173.1V659   C918.9,730.3,880.8,796.3,818.9,832z"></path>		<path class="st1" d="M416,801.7L223.5,516.3c-28.6-42.5-17.4-100.1,25-128.8c15.9-10.7,33.9-15.9,51.8-15.9   c29.8,0,59.1,14.3,77,40.9l115.9,171.8l-76.8,113.8c-21.4,31.7-20.5,72-0.8,102.1L416,801.7z"></path>		<path class="st2" d="M574.1,794.8l-4.5,6.7c-28.5,42.3-86,53.5-128.3,24.9c-42.3-28.5-53.5-86-24.9-128.3l76.7-113.8L569.8,698   C590,727.9,590.4,765.2,574.1,794.8z"></path>		<path class="st3" d="M963.1,190c0,17.8-5.1,35.8-15.8,51.6L574.1,794.8c16.3-29.5,15.9-66.9-4.3-96.8l-76.7-113.7L794,138.2   c28.5-42.3,86-53.5,128.3-24.9C948.8,131.2,963.1,160.3,963.1,190z"></path>		<g id="Final_Horizontal_00000000913455234797210990000002056278776827448205_">			<path class="st0" d="M1271.8,489.2c-53-13.6-55.1-20.1-55.1-28l0,0c0-7.9,11.8-13.9,27-13.9c13.7,0,37.8,4.8,52.6,14.1    c7.1,4.4,19.9,7.4,27.8,7.4c23.3,0,37.6-15.8,37.6-38.8c0-14.9-9.6-27.7-19.1-33.4c-28.5-18.1-62.1-29-98.2-29    c-66.3,0-112.8,42-112.8,98.6v0.8c0,55.6,47.5,81.2,104.5,95.7c48.9,12.5,49.2,22.5,49.2,28.6v0.8c0,14-22.5,17.4-29.5,17.4    c-23.2,0-44.9-8.2-66.4-24.1h-0.2c-7.6-5.3-15.8-9.8-24.9-9.8c-30.8,0-41.5,18.1-41.5,41.1c0,13.3,6.5,26.2,16.9,33.5    c33,23.7,74,36.7,115.1,36.7c71.3,0,117.6-39.7,117.6-101v-0.8C1372.3,529.9,1323.9,502.8,1271.8,489.2z"></path>			<path class="st0" d="M1657.2,602.1h-118.3V567h97.8c22.2,0,40.3-18.5,40.3-40.5c0-22.2-18.1-40.9-40.3-40.9h-97.8v-33.3h116.3    c22.2,0,40.3-18.5,40.3-40.5c0-22.2-18.1-40.9-40.3-40.9h-159.3c-24.4,0-44,20.1-44,44.5v224.1c0,24.4,19.6,44.2,44,44.2h161.3    c22.2,0,40.3-18.5,40.3-40.5C1697.5,620.9,1679.4,602.1,1657.2,602.1z"></path>			<path class="st0" d="M1919.9,370.7h-99.7c-24.4,0-44.3,20.1-44.3,44.5v226.6c0,24.4,19.1,43.6,43.5,43.6s43.5-19.1,43.5-43.6V591    h33.6l57.9,73.4c11.1,14.1,24.3,20.9,40.6,20.9c23.1,0,41.8-18.4,41.8-41c0-14.2-6.4-23.4-12.9-31.6l-35-41.8    c33.1-18.8,49.8-50.2,49.8-91.5v-0.8c0-28.1-9-56.2-27.4-74.6C1990,382.5,1958.9,370.7,1919.9,370.7z M1862.9,454h51.7    c25,0,40.9,1.9,40.9,27.8l0,0c0,18.2-16.5,29.6-39.7,29.6h-52.9V454L1862.9,454z"></path>			<path class="st0" d="M2348.8,369.2c-21,0-36,13.9-41.5,27.8l-61.5,159.1L2185.1,399c-7.2-18.7-23.4-29.8-43.2-29.8    c-24.4,0-43.6,19-43.6,43.2c0,7.7,2.3,14.3,4.6,19.8l93.2,222.9c8.8,20.9,25.4,32.3,46.7,32.3h4.1c21.4,0,38-11.4,46.8-32.3    l93.9-224.8c1.3-3,4.3-10.6,4.3-18.7C2392,387.8,2373,369.2,2348.8,369.2z"></path>			<path class="st0" d="M2509.1,369.2c-24.4,0-42.6,19.1-42.6,43.6v229c0,24.4,18.1,43.6,42.6,43.6c24.4,0,42.6-19.1,42.6-43.6v-229    C2551.7,388.4,2533.5,369.2,2509.1,369.2z"></path>			<path class="st0" d="M2842.6,370.7h-160.9c-24.4,0-43,20.1-43,44.5v226.6c0,24.4,19.1,43.6,43.5,43.6s43.5-19.1,43.5-43.6v-69.3    h98.4c22.4,0,40.7-19.2,40.7-41.7s-18.3-41.7-40.7-41.7h-98.4V454h116.8c22.4,0,40.7-19.2,40.7-41.7S2865,370.7,2842.6,370.7z"></path>			<path class="st0" d="M3177.1,368.8c-16.1,0-29.3,7.9-40.2,24l-61.2,87.3l-59.9-86.4c-7.1-10.5-19.2-24.5-41.1-24.5    c-24,0-43.5,19-43.5,42.3c0,10.5,3.1,20.5,9.8,29.7l90.2,122.9v77.8c0,24.4,19.1,43.6,43.5,43.6s43.5-19.1,43.5-43.6v-79    l90.8-122.2c6.9-9.7,10.7-19.5,10.7-29.1C3219.8,386.8,3201.9,368.8,3177.1,368.8z"></path>		</g>	</g></g></svg>