<svg width="260" height="33" viewBox="0 0 260 33" fill="none" xmlns="http://www.w3.org/2000/svg">
<path d="M5.34431 32.0381V0.961918L0 0.961914V32.0381L5.34431 32.0381Z" fill="#FFD124"/>
<path d="M11.5025 13.333V0.961918L31.1642 11.7414C30.7194 12.202 30.2551 12.7432 29.859 13.333H11.5025Z" fill="#FFD124"/>
<path d="M31.2304 21.2224C30.8743 20.8024 30.458 20.2681 30.0732 19.667H11.5025V32.0381L31.2304 21.2224Z" fill="#FFD124"/>
<path d="M33.4359 12.9377L40.0438 16.5386L33.4359 20.1395C33.4359 20.1395 31.2333 18.2964 31.2333 16.5386C31.2333 14.7808 33.4359 12.9377 33.4359 12.9377Z" fill="#FFD124"/>
<path d="M55.6371 24.4673C54.1927 24.4673 53.0659 24.0627 52.2566 23.2534C51.4575 22.4441 51.058 21.3275 51.058 19.9036V11.4983H48.538V8.82462H51.1041V4.7987L54.2234 2.52451V8.82462H58.2186V11.4983H54.2234V19.3658C54.2234 20.1853 54.3925 20.7743 54.7305 21.1329C55.0686 21.4812 55.5552 21.6553 56.1903 21.6553C56.805 21.6553 57.4759 21.4914 58.2033 21.1636L58.2186 24.0371C57.9113 24.1498 57.522 24.2471 57.0508 24.329C56.5796 24.4212 56.1083 24.4673 55.6371 24.4673Z" fill="#2E2E2E"/>
<path d="M67.3467 24.4673C65.7179 24.4673 64.335 24.1139 63.1979 23.4071C62.0608 22.69 61.2054 21.7322 60.6317 20.5336C60.0581 19.3351 59.7712 18.0136 59.7712 16.5691C59.7712 15.1452 60.0427 13.8237 60.5856 12.6047C61.1388 11.3754 61.9635 10.392 63.0596 9.65439C64.1659 8.90657 65.5079 8.53266 67.0855 8.53266C68.7348 8.53266 70.0768 8.9117 71.1114 9.66976C72.1563 10.4176 72.9041 11.3652 73.3549 12.5125C73.8159 13.6598 74.0464 14.843 74.0464 16.0621C74.0464 16.3489 74.031 16.6306 74.0003 16.9072C73.9798 17.1838 73.9542 17.3784 73.9234 17.4911H63.121C63.2645 18.7819 63.6845 19.7858 64.3811 20.5029C65.0879 21.22 66.0816 21.5785 67.3621 21.5785C68.1509 21.5785 68.8628 21.4453 69.498 21.179C70.1434 20.9126 70.7529 20.467 71.3265 19.8421L73.5085 21.7629C72.6583 22.6849 71.7312 23.3661 70.7273 23.8066C69.7336 24.2471 68.6067 24.4673 67.3467 24.4673ZM70.9117 15.1862C70.9322 14.8481 70.9014 14.5255 70.8195 14.2181C70.6556 13.3167 70.2458 12.5893 69.5902 12.0361C68.9346 11.483 68.0894 11.2064 67.0548 11.2064C65.9074 11.2064 65.006 11.5649 64.3503 12.282C63.705 12.9991 63.2952 13.9672 63.121 15.1862H70.9117Z" fill="#2E2E2E"/>
<path d="M82.8671 24.4673C81.3305 24.4673 80.0142 24.1037 78.918 23.3763C77.8219 22.649 76.9973 21.6809 76.4441 20.4721C75.8909 19.2633 75.6143 17.947 75.6143 16.523C75.6143 15.1299 75.8858 13.8237 76.4287 12.6047C76.9717 11.3856 77.7861 10.4022 78.8719 9.65439C79.9681 8.90657 81.2895 8.53266 82.8364 8.53266C84.3423 8.53266 85.6586 8.90657 86.7855 9.65439C87.9123 10.4022 88.7575 11.5034 89.3209 12.9581L86.3091 14.1259C86.0428 13.3064 85.6023 12.6508 84.9877 12.1591C84.373 11.6674 83.6559 11.4215 82.8364 11.4215C81.9349 11.4215 81.182 11.6622 80.5776 12.1437C79.9834 12.6149 79.5429 13.2398 79.2561 14.0184C78.9795 14.7867 78.8412 15.6216 78.8412 16.523C78.8412 17.4348 78.9795 18.2748 79.2561 19.0431C79.5429 19.8114 79.9834 20.426 80.5776 20.887C81.182 21.348 81.9349 21.5785 82.8364 21.5785C83.6662 21.5785 84.3833 21.3378 84.9877 20.8563C85.6023 20.3748 86.0325 19.7294 86.2784 18.9202L89.1672 20.0112C88.6653 21.4146 87.8611 22.5107 86.7548 23.2995C85.6484 24.0781 84.3525 24.4673 82.8671 24.4673Z" fill="#2E2E2E"/>
<path d="M91.8262 2.46305H95.0531V10.8837C95.596 10.1051 96.267 9.52122 97.066 9.13194C97.8651 8.73242 98.7102 8.53266 99.6015 8.53266C100.831 8.53266 101.86 8.8195 102.69 9.39317C103.53 9.96684 104.15 10.7249 104.549 11.6674C104.949 12.6098 105.154 13.6496 105.164 14.7867V24.1754H101.937V15.263C101.937 14.0645 101.701 13.1271 101.23 12.451C100.759 11.7647 99.96 11.4215 98.8332 11.4215C98.0239 11.4215 97.3324 11.6213 96.7587 12.0208C96.1953 12.4203 95.7702 12.9735 95.4833 13.6803C95.1965 14.3769 95.0531 15.176 95.0531 16.0774V24.1754H91.8262V2.46305Z" fill="#2E2E2E"/>
<path d="M108.96 8.82462H112.233V10.9759C112.735 10.1871 113.406 9.58268 114.246 9.16268C115.096 8.74267 116.008 8.53266 116.981 8.53266C118.333 8.53266 119.506 8.89121 120.5 9.60829C121.494 10.3254 122.247 11.2934 122.759 12.5125C123.281 13.7213 123.542 15.053 123.542 16.5077C123.542 17.9623 123.281 19.2992 122.759 20.5182C122.247 21.727 121.489 22.69 120.485 23.4071C119.491 24.1139 118.308 24.4673 116.935 24.4673C115.962 24.4673 115.06 24.2625 114.231 23.8527C113.401 23.4327 112.735 22.8232 112.233 22.0241V30.537H108.96V8.82462ZM116.197 21.5785C117.099 21.5785 117.857 21.3583 118.472 20.9178C119.097 20.4773 119.563 19.8729 119.87 19.1046C120.177 18.3363 120.331 17.4706 120.331 16.5077C120.331 15.5345 120.177 14.6689 119.87 13.9108C119.563 13.1527 119.097 12.5586 118.472 12.1283C117.857 11.6878 117.099 11.4676 116.197 11.4676C115.296 11.4676 114.523 11.6878 113.877 12.1283C113.242 12.5586 112.761 13.1527 112.433 13.9108C112.105 14.6689 111.941 15.5345 111.941 16.5077C111.941 17.4706 112.105 18.3363 112.433 19.1046C112.761 19.8729 113.242 20.4773 113.877 20.9178C114.523 21.3583 115.296 21.5785 116.197 21.5785Z" fill="#2E2E2E"/>
<path d="M131.994 8.53266C133.336 8.53266 134.494 8.79389 135.467 9.31634C136.44 9.83879 137.183 10.5764 137.695 11.5291C138.208 12.4715 138.464 13.5728 138.464 14.8328V24.1754H135.836L135.621 21.7783C135.129 22.6388 134.417 23.3046 133.485 23.7759C132.563 24.2368 131.595 24.4673 130.581 24.4673C129.526 24.4673 128.583 24.2727 127.753 23.8834C126.924 23.4941 126.273 22.9307 125.802 22.1931C125.331 21.4453 125.095 20.5643 125.095 19.5502C125.095 17.9931 125.648 16.8662 126.755 16.1696C127.861 15.473 129.377 15.1247 131.303 15.1247H135.575C135.554 14.213 135.431 13.4857 135.206 12.9427C134.981 12.3896 134.612 11.9798 134.1 11.7135C133.598 11.4471 132.901 11.3139 132.01 11.3139C131.139 11.3139 130.376 11.5188 129.72 11.9286C129.075 12.3383 128.542 12.8915 128.122 13.5881L125.694 11.8364C126.473 10.7608 127.364 9.94123 128.368 9.3778C129.382 8.81438 130.591 8.53266 131.994 8.53266ZM131.211 21.7629C132.01 21.7629 132.717 21.5887 133.331 21.2404C133.956 20.8921 134.458 20.426 134.837 19.8421C135.216 19.2582 135.462 18.6128 135.575 17.906V17.4297H131.487C130.463 17.4297 129.684 17.6345 129.152 18.0443C128.619 18.4438 128.353 18.9765 128.353 19.6424C128.353 20.2878 128.599 20.8051 129.09 21.1944C129.582 21.5734 130.289 21.7629 131.211 21.7629Z" fill="#2E2E2E"/>
<path d="M147.622 8.53266C148.964 8.53266 150.122 8.79389 151.095 9.31634C152.068 9.83879 152.811 10.5764 153.323 11.5291C153.835 12.4715 154.092 13.5728 154.092 14.8328V24.1754H151.464L151.249 21.7783C150.757 22.6388 150.045 23.3046 149.113 23.7759C148.191 24.2368 147.223 24.4673 146.209 24.4673C145.154 24.4673 144.211 24.2727 143.381 23.8834C142.552 23.4941 141.901 22.9307 141.43 22.1931C140.959 21.4453 140.723 20.5643 140.723 19.5502C140.723 17.9931 141.276 16.8662 142.383 16.1696C143.489 15.473 145.005 15.1247 146.931 15.1247H151.203C151.182 14.213 151.059 13.4857 150.834 12.9427C150.609 12.3896 150.24 11.9798 149.728 11.7135C149.226 11.4471 148.529 11.3139 147.638 11.3139C146.767 11.3139 146.004 11.5188 145.348 11.9286C144.703 12.3383 144.17 12.8915 143.75 13.5881L141.322 11.8364C142.101 10.7608 142.992 9.94123 143.996 9.3778C145.01 8.81438 146.219 8.53266 147.622 8.53266ZM146.839 21.7629C147.638 21.7629 148.345 21.5887 148.959 21.2404C149.584 20.8921 150.086 20.426 150.465 19.8421C150.844 19.2582 151.09 18.6128 151.203 17.906V17.4297H147.115C146.091 17.4297 145.312 17.6345 144.78 18.0443C144.247 18.4438 143.981 18.9765 143.981 19.6424C143.981 20.2878 144.227 20.8051 144.718 21.1944C145.21 21.5734 145.917 21.7629 146.839 21.7629Z" fill="#2E2E2E"/>
<path d="M162.912 24.4673C161.468 24.4673 160.341 24.0627 159.532 23.2534C158.733 22.4441 158.333 21.3275 158.333 19.9036V11.4983H155.813V8.82462H158.379V4.7987L161.499 2.52451V8.82462H165.494V11.4983H161.499V19.3658C161.499 20.1853 161.668 20.7743 162.006 21.1329C162.344 21.4812 162.83 21.6553 163.466 21.6553C164.08 21.6553 164.751 21.4914 165.478 21.1636L165.494 24.0371C165.187 24.1498 164.797 24.2471 164.326 24.329C163.855 24.4212 163.384 24.4673 162.912 24.4673Z" fill="#2E2E2E"/>
<path d="M167.907 2.46305H171.134V10.8837C171.677 10.1051 172.348 9.52122 173.147 9.13194C173.946 8.73242 174.791 8.53266 175.682 8.53266C176.911 8.53266 177.941 8.8195 178.771 9.39317C179.611 9.96684 180.231 10.7249 180.63 11.6674C181.03 12.6098 181.235 13.6496 181.245 14.7867V24.1754H178.018V15.263C178.018 14.0645 177.782 13.1271 177.311 12.451C176.84 11.7647 176.041 11.4215 174.914 11.4215C174.105 11.4215 173.413 11.6213 172.839 12.0208C172.276 12.4203 171.851 12.9735 171.564 13.6803C171.277 14.3769 171.134 15.176 171.134 16.0774V24.1754H167.907V2.46305Z" fill="#2E2E2E"/>
<path d="M189.605 24.4673C188.58 24.4673 187.627 24.2829 186.746 23.9142C185.876 23.5351 185.133 23.028 184.518 22.3929C183.914 21.7475 183.484 21.0304 183.228 20.2417L185.778 19.1199C186.055 19.878 186.49 20.5182 187.084 21.0407C187.679 21.5529 188.467 21.809 189.451 21.809C190.066 21.809 190.583 21.7066 191.003 21.5017C191.433 21.2968 191.756 21.0304 191.971 20.7026C192.186 20.3748 192.294 20.0265 192.294 19.6577C192.294 19.2377 192.155 18.8997 191.879 18.6436C191.602 18.3772 191.254 18.1672 190.834 18.0136C190.414 17.8599 189.83 17.6858 189.082 17.4911C188.047 17.2248 187.202 16.9584 186.547 16.6921C185.901 16.4155 185.343 15.9955 184.872 15.4321C184.411 14.8584 184.18 14.0901 184.18 13.1271C184.18 12.1437 184.431 11.3088 184.933 10.6225C185.435 9.92586 186.106 9.40341 186.946 9.05511C187.786 8.70681 188.713 8.53266 189.727 8.53266C190.998 8.53266 192.119 8.8195 193.093 9.39317C194.066 9.96684 194.839 10.7761 195.413 11.821L192.954 13.1579C192.186 11.7544 191.075 11.0527 189.62 11.0527C188.893 11.0527 188.309 11.2115 187.868 11.5291C187.438 11.8364 187.223 12.2308 187.223 12.7123C187.223 13.0708 187.351 13.373 187.607 13.6189C187.873 13.8545 188.206 14.0491 188.606 14.2028C189.005 14.3462 189.553 14.5152 190.25 14.7098C191.326 15.0069 192.207 15.3091 192.893 15.6164C193.579 15.9135 194.168 16.3745 194.66 16.9994C195.162 17.6243 195.413 18.4592 195.413 19.5041C195.413 20.5899 195.141 21.5068 194.599 22.2546C194.056 22.9922 193.344 23.5454 192.463 23.9142C191.582 24.2829 190.629 24.4673 189.605 24.4673Z" fill="#2E2E2E"/>
<path d="M198.487 2.46305H201.714V10.8837C202.257 10.1051 202.928 9.52122 203.727 9.13194C204.526 8.73242 205.371 8.53266 206.262 8.53266C207.491 8.53266 208.521 8.8195 209.351 9.39317C210.191 9.96684 210.81 10.7249 211.21 11.6674C211.609 12.6098 211.814 13.6496 211.825 14.7867V24.1754H208.598V15.263C208.598 14.0645 208.362 13.1271 207.891 12.451C207.42 11.7647 206.621 11.4215 205.494 11.4215C204.684 11.4215 203.993 11.6213 203.419 12.0208C202.856 12.4203 202.431 12.9735 202.144 13.6803C201.857 14.3769 201.714 15.176 201.714 16.0774V24.1754H198.487V2.46305Z" fill="#2E2E2E"/>
<path d="M221.091 8.53266C222.433 8.53266 223.591 8.79389 224.564 9.31634C225.537 9.83879 226.28 10.5764 226.792 11.5291C227.304 12.4715 227.56 13.5728 227.56 14.8328V24.1754H224.932L224.717 21.7783C224.226 22.6388 223.514 23.3046 222.581 23.7759C221.66 24.2368 220.691 24.4673 219.677 24.4673C218.622 24.4673 217.68 24.2727 216.85 23.8834C216.02 23.4941 215.37 22.9307 214.898 22.1931C214.427 21.4453 214.192 20.5643 214.192 19.5502C214.192 17.9931 214.745 16.8662 215.851 16.1696C216.957 15.473 218.474 15.1247 220.399 15.1247H224.671C224.651 14.213 224.528 13.4857 224.302 12.9427C224.077 12.3896 223.708 11.9798 223.196 11.7135C222.694 11.4471 221.998 11.3139 221.106 11.3139C220.236 11.3139 219.472 11.5188 218.817 11.9286C218.171 12.3383 217.639 12.8915 217.219 13.5881L214.791 11.8364C215.569 10.7608 216.461 9.94123 217.465 9.3778C218.479 8.81438 219.688 8.53266 221.091 8.53266ZM220.307 21.7629C221.106 21.7629 221.813 21.5887 222.428 21.2404C223.053 20.8921 223.555 20.426 223.934 19.8421C224.313 19.2582 224.559 18.6128 224.671 17.906V17.4297H220.584C219.559 17.4297 218.781 17.6345 218.248 18.0443C217.716 18.4438 217.449 18.9765 217.449 19.6424C217.449 20.2878 217.695 20.8051 218.187 21.1944C218.678 21.5734 219.385 21.7629 220.307 21.7629Z" fill="#2E2E2E"/>
<path d="M234.306 24.4673C233.303 24.4673 232.534 24.2061 232.002 23.6837C231.479 23.151 231.218 22.2751 231.218 21.0561V2.46305H234.383V20.1956C234.383 20.6565 234.491 21.01 234.706 21.2558C234.921 21.4914 235.275 21.6092 235.766 21.6092C236.022 21.6092 236.391 21.5734 236.873 21.5017L236.888 24.1754C235.935 24.37 235.075 24.4673 234.306 24.4673Z" fill="#2E2E2E"/>
<path d="M244.787 8.53266C246.129 8.53266 247.286 8.79389 248.259 9.31634C249.233 9.83879 249.975 10.5764 250.488 11.5291C251 12.4715 251.256 13.5728 251.256 14.8328V24.1754H248.628L248.413 21.7783C247.921 22.6388 247.209 23.3046 246.277 23.7759C245.355 24.2368 244.387 24.4673 243.373 24.4673C242.318 24.4673 241.375 24.2727 240.546 23.8834C239.716 23.4941 239.065 22.9307 238.594 22.1931C238.123 21.4453 237.887 20.5643 237.887 19.5502C237.887 17.9931 238.441 16.8662 239.547 16.1696C240.653 15.473 242.169 15.1247 244.095 15.1247H248.367C248.347 14.213 248.224 13.4857 247.998 12.9427C247.773 12.3896 247.404 11.9798 246.892 11.7135C246.39 11.4471 245.693 11.3139 244.802 11.3139C243.931 11.3139 243.168 11.5188 242.513 11.9286C241.867 12.3383 241.335 12.8915 240.914 13.5881L238.487 11.8364C239.265 10.7608 240.156 9.94123 241.16 9.3778C242.175 8.81438 243.383 8.53266 244.787 8.53266ZM244.003 21.7629C244.802 21.7629 245.509 21.5887 246.124 21.2404C246.748 20.8921 247.25 20.426 247.629 19.8421C248.008 19.2582 248.254 18.6128 248.367 17.906V17.4297H244.28C243.255 17.4297 242.477 17.6345 241.944 18.0443C241.411 18.4438 241.145 18.9765 241.145 19.6424C241.145 20.2878 241.391 20.8051 241.883 21.1944C242.374 21.5734 243.081 21.7629 244.003 21.7629Z" fill="#2E2E2E"/>
<path d="M253.878 23.2601C253.878 22.8957 253.941 22.5565 254.067 22.2424C254.206 21.9157 254.389 21.633 254.616 21.3943C254.856 21.1555 255.133 20.9671 255.448 20.8288C255.776 20.6906 256.123 20.6215 256.489 20.6215C256.854 20.6215 257.195 20.6906 257.51 20.8288C257.838 20.9671 258.122 21.1555 258.361 21.3943C258.601 21.633 258.79 21.9157 258.929 22.2424C259.067 22.5565 259.137 22.8957 259.137 23.2601C259.137 23.637 259.067 23.9826 258.929 24.2967C258.79 24.6108 258.601 24.8872 258.361 25.1259C258.122 25.3647 257.838 25.5469 257.51 25.6725C257.195 25.8107 256.854 25.8798 256.489 25.8798C256.123 25.8798 255.776 25.8107 255.448 25.6725C255.133 25.5469 254.856 25.3647 254.616 25.1259C254.389 24.8872 254.206 24.6108 254.067 24.2967C253.941 23.9826 253.878 23.637 253.878 23.2601Z" fill="#FFD124"/>
</svg>
