<svg width="186" height="31" viewBox="0 0 186 31" fill="none" xmlns="http://www.w3.org/2000/svg">
<path d="M3.74567 2.28168V28.8548L0 30.7725V0.227051L3.74567 2.28168Z" fill="#C62727"/>
<path d="M8.18497 4.74723V13.3082H24L8.18497 4.74723Z" fill="#C62727"/>
<path d="M12.9017 5.22664L13.251 7.05544L20.1818 10.8143L12.9017 5.22664Z" fill="#C62727"/>
<path d="M8.18497 26.2523V17.6914H24L8.18497 26.2523Z" fill="#C62727"/>
<path d="M12.9017 25.7729L13.251 23.9441L20.1818 20.1852L12.9017 25.7729Z" fill="#C62727"/>
<path d="M37.496 24.692C36.48 24.692 35.696 24.408 35.144 23.84C34.6 23.264 34.328 22.456 34.328 21.416V14.288H32.984C32.84 14.288 32.716 14.244 32.612 14.156C32.508 14.06 32.456 13.92 32.456 13.736V12.692L34.436 12.404L35 8.864C35.04 8.728 35.108 8.62 35.204 8.54C35.3 8.452 35.428 8.408 35.588 8.408H36.908V12.428H40.304V14.288H36.908V21.236C36.908 21.676 37.016 22.012 37.232 22.244C37.448 22.476 37.736 22.592 38.096 22.592C38.296 22.592 38.468 22.568 38.612 22.52C38.756 22.464 38.88 22.408 38.984 22.352C39.088 22.288 39.176 22.232 39.248 22.184C39.328 22.128 39.404 22.1 39.476 22.1C39.62 22.1 39.736 22.18 39.824 22.34L40.592 23.6C40.192 23.952 39.72 24.224 39.176 24.416C38.632 24.6 38.072 24.692 37.496 24.692ZM49.5519 17C49.5519 16.568 49.4879 16.168 49.3599 15.8C49.2399 15.424 49.0599 15.1 48.8199 14.828C48.5799 14.548 48.2799 14.332 47.9199 14.18C47.5679 14.02 47.1599 13.94 46.6959 13.94C45.7599 13.94 45.0239 14.208 44.4879 14.744C43.9519 15.28 43.6119 16.032 43.4679 17H49.5519ZM43.3959 18.584C43.4279 19.28 43.5359 19.884 43.7199 20.396C43.9039 20.9 44.1479 21.32 44.4519 21.656C44.7639 21.992 45.1319 22.244 45.5559 22.412C45.9879 22.572 46.4679 22.652 46.9959 22.652C47.4999 22.652 47.9359 22.596 48.3039 22.484C48.6719 22.364 48.9919 22.236 49.2639 22.1C49.5359 21.956 49.7679 21.828 49.9599 21.716C50.1519 21.596 50.3279 21.536 50.4879 21.536C50.6959 21.536 50.8559 21.616 50.9679 21.776L51.6999 22.724C51.3959 23.084 51.0519 23.388 50.6679 23.636C50.2839 23.884 49.8759 24.088 49.4439 24.248C49.0119 24.4 48.5679 24.508 48.1119 24.572C47.6559 24.644 47.2119 24.68 46.7799 24.68C45.9319 24.68 45.1439 24.54 44.4159 24.26C43.6959 23.972 43.0679 23.552 42.5319 23C42.0039 22.448 41.5879 21.764 41.2839 20.948C40.9879 20.132 40.8399 19.192 40.8399 18.128C40.8399 17.28 40.9719 16.488 41.2359 15.752C41.5079 15.016 41.8919 14.376 42.3879 13.832C42.8919 13.288 43.4999 12.86 44.2119 12.548C44.9319 12.228 45.7439 12.068 46.6479 12.068C47.3999 12.068 48.0959 12.192 48.7359 12.44C49.3759 12.68 49.9279 13.036 50.3919 13.508C50.8559 13.98 51.2159 14.56 51.4719 15.248C51.7359 15.928 51.8679 16.704 51.8679 17.576C51.8679 17.976 51.8239 18.244 51.7359 18.38C51.6479 18.516 51.4879 18.584 51.2559 18.584H43.3959ZM62.2059 14.66C62.1259 14.764 62.0499 14.844 61.9779 14.9C61.9059 14.956 61.8019 14.984 61.6659 14.984C61.5299 14.984 61.3859 14.936 61.2339 14.84C61.0899 14.744 60.9139 14.64 60.7059 14.528C60.5059 14.408 60.2619 14.3 59.9739 14.204C59.6859 14.108 59.3259 14.06 58.8939 14.06C58.3339 14.06 57.8419 14.16 57.4179 14.36C57.0019 14.56 56.6499 14.848 56.3619 15.224C56.0819 15.592 55.8699 16.044 55.7259 16.58C55.5899 17.108 55.5219 17.704 55.5219 18.368C55.5219 19.056 55.5979 19.668 55.7499 20.204C55.9019 20.74 56.1179 21.192 56.3979 21.56C56.6859 21.928 57.0299 22.208 57.4299 22.4C57.8379 22.592 58.2939 22.688 58.7979 22.688C59.2939 22.688 59.6979 22.628 60.0099 22.508C60.3219 22.388 60.5819 22.256 60.7899 22.112C60.9979 21.968 61.1739 21.836 61.3179 21.716C61.4699 21.596 61.6299 21.536 61.7979 21.536C62.0059 21.536 62.1659 21.616 62.2779 21.776L63.0099 22.724C62.7139 23.084 62.3859 23.388 62.0259 23.636C61.6659 23.884 61.2859 24.088 60.8859 24.248C60.4859 24.4 60.0699 24.508 59.6379 24.572C59.2059 24.644 58.7699 24.68 58.3299 24.68C57.5699 24.68 56.8579 24.54 56.1939 24.26C55.5379 23.972 54.9619 23.56 54.4659 23.024C53.9779 22.48 53.5899 21.82 53.3019 21.044C53.0219 20.26 52.8819 19.368 52.8819 18.368C52.8819 17.464 53.0099 16.628 53.2659 15.86C53.5219 15.084 53.8939 14.416 54.3819 13.856C54.8779 13.296 55.4899 12.86 56.2179 12.548C56.9459 12.228 57.7859 12.068 58.7379 12.068C59.6259 12.068 60.4059 12.212 61.0779 12.5C61.7579 12.788 62.3619 13.196 62.8899 13.724L62.2059 14.66ZM66.9451 13.712C67.4491 13.216 68.0011 12.82 68.6011 12.524C69.2011 12.22 69.9011 12.068 70.7011 12.068C71.3731 12.068 71.9611 12.18 72.4651 12.404C72.9771 12.628 73.4051 12.944 73.7491 13.352C74.1011 13.76 74.3651 14.252 74.5411 14.828C74.7171 15.396 74.8051 16.024 74.8051 16.712V24.5H72.2371V16.712C72.2371 15.888 72.0451 15.248 71.6611 14.792C71.2851 14.336 70.7091 14.108 69.9331 14.108C69.3571 14.108 68.8211 14.24 68.3251 14.504C67.8371 14.768 67.3771 15.128 66.9451 15.584V24.5H64.3651V6.74H66.9451V13.712ZM84.4062 14.48C84.3422 14.592 84.2702 14.672 84.1902 14.72C84.1102 14.768 84.0102 14.792 83.8902 14.792C83.7542 14.792 83.6062 14.752 83.4462 14.672C83.2862 14.584 83.0982 14.488 82.8822 14.384C82.6662 14.28 82.4102 14.188 82.1142 14.108C81.8262 14.02 81.4862 13.976 81.0942 13.976C80.7742 13.976 80.4822 14.016 80.2182 14.096C79.9622 14.168 79.7422 14.276 79.5582 14.42C79.3822 14.556 79.2462 14.72 79.1502 14.912C79.0542 15.096 79.0062 15.296 79.0062 15.512C79.0062 15.8 79.0942 16.04 79.2702 16.232C79.4462 16.424 79.6782 16.592 79.9662 16.736C80.2542 16.872 80.5822 16.996 80.9502 17.108C81.3182 17.22 81.6942 17.34 82.0782 17.468C82.4622 17.596 82.8382 17.744 83.2062 17.912C83.5742 18.08 83.9022 18.288 84.1902 18.536C84.4782 18.776 84.7102 19.072 84.8862 19.424C85.0622 19.768 85.1502 20.188 85.1502 20.684C85.1502 21.26 85.0462 21.792 84.8382 22.28C84.6302 22.768 84.3262 23.192 83.9262 23.552C83.5262 23.912 83.0262 24.192 82.4262 24.392C81.8342 24.592 81.1542 24.692 80.3862 24.692C79.9622 24.692 79.5502 24.652 79.1502 24.572C78.7582 24.5 78.3822 24.4 78.0222 24.272C77.6702 24.136 77.3382 23.976 77.0262 23.792C76.7222 23.608 76.4502 23.408 76.2102 23.192L76.8102 22.208C76.8822 22.088 76.9702 21.996 77.0742 21.932C77.1862 21.86 77.3222 21.824 77.4822 21.824C77.6502 21.824 77.8142 21.88 77.9742 21.992C78.1422 22.096 78.3342 22.212 78.5502 22.34C78.7742 22.468 79.0422 22.588 79.3542 22.7C79.6662 22.804 80.0542 22.856 80.5182 22.856C80.9022 22.856 81.2342 22.812 81.5142 22.724C81.7942 22.628 82.0262 22.5 82.2102 22.34C82.3942 22.18 82.5302 22 82.6182 21.8C82.7062 21.592 82.7502 21.372 82.7502 21.14C82.7502 20.828 82.6622 20.572 82.4862 20.372C82.3102 20.172 82.0742 20 81.7782 19.856C81.4902 19.712 81.1582 19.584 80.7822 19.472C80.4142 19.36 80.0382 19.24 79.6542 19.112C79.2702 18.984 78.8902 18.836 78.5142 18.668C78.1462 18.5 77.8142 18.288 77.5182 18.032C77.2302 17.768 76.9982 17.452 76.8222 17.084C76.6462 16.708 76.5582 16.252 76.5582 15.716C76.5582 15.228 76.6542 14.764 76.8462 14.324C77.0462 13.884 77.3342 13.496 77.7102 13.16C78.0942 12.824 78.5622 12.56 79.1142 12.368C79.6742 12.168 80.3182 12.068 81.0462 12.068C81.8702 12.068 82.6182 12.2 83.2902 12.464C83.9622 12.728 84.5262 13.088 84.9822 13.544L84.4062 14.48ZM90.7788 24.692C89.7628 24.692 88.9788 24.408 88.4268 23.84C87.8828 23.264 87.6108 22.456 87.6108 21.416V14.288H86.2668C86.1228 14.288 85.9988 14.244 85.8948 14.156C85.7908 14.06 85.7388 13.92 85.7388 13.736V12.692L87.7188 12.404L88.2828 8.864C88.3228 8.728 88.3908 8.62 88.4868 8.54C88.5828 8.452 88.7108 8.408 88.8708 8.408H90.1908V12.428H93.5868V14.288H90.1908V21.236C90.1908 21.676 90.2988 22.012 90.5148 22.244C90.7308 22.476 91.0188 22.592 91.3788 22.592C91.5788 22.592 91.7508 22.568 91.8948 22.52C92.0388 22.464 92.1628 22.408 92.2668 22.352C92.3708 22.288 92.4588 22.232 92.5308 22.184C92.6108 22.128 92.6868 22.1 92.7588 22.1C92.9028 22.1 93.0188 22.18 93.1068 22.34L93.8748 23.6C93.4748 23.952 93.0028 24.224 92.4588 24.416C91.9148 24.6 91.3548 24.692 90.7788 24.692ZM101.44 19.148C100.52 19.18 99.7444 19.256 99.1124 19.376C98.4804 19.488 97.9684 19.636 97.5764 19.82C97.1844 19.996 96.9004 20.208 96.7244 20.456C96.5564 20.704 96.4724 20.976 96.4724 21.272C96.4724 21.56 96.5164 21.808 96.6044 22.016C96.7004 22.216 96.8284 22.384 96.9884 22.52C97.1564 22.648 97.3484 22.744 97.5644 22.808C97.7884 22.864 98.0324 22.892 98.2964 22.892C98.9684 22.892 99.5444 22.768 100.024 22.52C100.512 22.264 100.984 21.896 101.44 21.416V19.148ZM94.6004 13.964C95.9844 12.676 97.6324 12.032 99.5444 12.032C100.248 12.032 100.872 12.148 101.416 12.38C101.968 12.604 102.428 12.924 102.796 13.34C103.172 13.756 103.456 14.252 103.648 14.828C103.848 15.396 103.948 16.028 103.948 16.724V24.5H102.796C102.548 24.5 102.36 24.464 102.232 24.392C102.104 24.312 101.996 24.156 101.908 23.924L101.656 22.928C101.344 23.208 101.036 23.46 100.732 23.684C100.428 23.9 100.112 24.084 99.7844 24.236C99.4644 24.388 99.1164 24.5 98.7404 24.572C98.3724 24.652 97.9644 24.692 97.5164 24.692C97.0204 24.692 96.5564 24.624 96.1244 24.488C95.7004 24.352 95.3324 24.148 95.0204 23.876C94.7084 23.596 94.4604 23.252 94.2764 22.844C94.1004 22.436 94.0124 21.956 94.0124 21.404C94.0124 20.932 94.1364 20.472 94.3844 20.024C94.6404 19.576 95.0564 19.176 95.6324 18.824C96.2164 18.464 96.9804 18.168 97.9244 17.936C98.8764 17.704 100.048 17.572 101.44 17.54V16.724C101.44 15.844 101.252 15.188 100.876 14.756C100.5 14.324 99.9484 14.108 99.2204 14.108C98.7244 14.108 98.3084 14.172 97.9724 14.3C97.6364 14.42 97.3444 14.552 97.0964 14.696C96.8484 14.84 96.6284 14.976 96.4364 15.104C96.2444 15.224 96.0404 15.284 95.8244 15.284C95.6484 15.284 95.4964 15.24 95.3684 15.152C95.2484 15.056 95.1484 14.94 95.0684 14.804L94.6004 13.964ZM108.879 6.74V24.5H106.299V6.74H108.879ZM128.539 12.26L124.615 24.5H122.563C122.323 24.5 122.155 24.344 122.059 24.032L119.623 16.412C119.559 16.196 119.499 15.98 119.443 15.764C119.395 15.548 119.351 15.336 119.311 15.128C119.223 15.56 119.115 15.992 118.987 16.424L116.515 24.032C116.427 24.344 116.239 24.5 115.951 24.5H113.995L110.071 12.26H112.111C112.311 12.26 112.475 12.312 112.603 12.416C112.739 12.512 112.827 12.628 112.867 12.764L114.907 19.892C114.987 20.22 115.055 20.54 115.111 20.852C115.175 21.156 115.231 21.46 115.279 21.764C115.359 21.46 115.443 21.156 115.531 20.852C115.619 20.54 115.711 20.22 115.807 19.892L118.099 12.728C118.139 12.584 118.219 12.468 118.339 12.38C118.467 12.284 118.619 12.236 118.795 12.236H119.923C120.107 12.236 120.263 12.284 120.391 12.38C120.519 12.468 120.603 12.584 120.643 12.728L122.875 19.892C122.971 20.22 123.059 20.54 123.139 20.852C123.227 21.164 123.307 21.476 123.379 21.788C123.435 21.484 123.495 21.176 123.559 20.864C123.623 20.552 123.699 20.228 123.787 19.892L125.863 12.764C125.911 12.62 125.999 12.5 126.127 12.404C126.255 12.308 126.411 12.26 126.595 12.26H128.539ZM136.077 19.148C135.157 19.18 134.381 19.256 133.749 19.376C133.117 19.488 132.605 19.636 132.213 19.82C131.821 19.996 131.537 20.208 131.361 20.456C131.193 20.704 131.109 20.976 131.109 21.272C131.109 21.56 131.153 21.808 131.241 22.016C131.337 22.216 131.465 22.384 131.625 22.52C131.793 22.648 131.985 22.744 132.201 22.808C132.425 22.864 132.669 22.892 132.933 22.892C133.605 22.892 134.181 22.768 134.661 22.52C135.149 22.264 135.621 21.896 136.077 21.416V19.148ZM129.237 13.964C130.621 12.676 132.269 12.032 134.181 12.032C134.885 12.032 135.509 12.148 136.053 12.38C136.605 12.604 137.065 12.924 137.433 13.34C137.809 13.756 138.093 14.252 138.285 14.828C138.485 15.396 138.585 16.028 138.585 16.724V24.5H137.433C137.185 24.5 136.997 24.464 136.869 24.392C136.741 24.312 136.633 24.156 136.545 23.924L136.293 22.928C135.981 23.208 135.673 23.46 135.369 23.684C135.065 23.9 134.749 24.084 134.421 24.236C134.101 24.388 133.753 24.5 133.377 24.572C133.009 24.652 132.601 24.692 132.153 24.692C131.657 24.692 131.193 24.624 130.761 24.488C130.337 24.352 129.969 24.148 129.657 23.876C129.345 23.596 129.097 23.252 128.913 22.844C128.737 22.436 128.649 21.956 128.649 21.404C128.649 20.932 128.773 20.472 129.021 20.024C129.277 19.576 129.693 19.176 130.269 18.824C130.853 18.464 131.617 18.168 132.561 17.936C133.513 17.704 134.685 17.572 136.077 17.54V16.724C136.077 15.844 135.889 15.188 135.513 14.756C135.137 14.324 134.585 14.108 133.857 14.108C133.361 14.108 132.945 14.172 132.609 14.3C132.273 14.42 131.981 14.552 131.733 14.696C131.485 14.84 131.265 14.976 131.073 15.104C130.881 15.224 130.677 15.284 130.461 15.284C130.285 15.284 130.133 15.24 130.005 15.152C129.885 15.056 129.785 14.94 129.705 14.804L129.237 13.964ZM143.324 14.528C143.708 13.752 144.172 13.144 144.716 12.704C145.26 12.256 145.912 12.032 146.672 12.032C146.936 12.032 147.184 12.064 147.416 12.128C147.648 12.184 147.856 12.272 148.04 12.392L147.86 14.336C147.828 14.472 147.776 14.568 147.704 14.624C147.64 14.672 147.552 14.696 147.44 14.696C147.32 14.696 147.148 14.676 146.924 14.636C146.7 14.588 146.464 14.564 146.216 14.564C145.856 14.564 145.536 14.616 145.256 14.72C144.984 14.824 144.736 14.976 144.512 15.176C144.296 15.376 144.104 15.62 143.936 15.908C143.768 16.196 143.612 16.524 143.468 16.892V24.5H140.888V12.26H142.388C142.66 12.26 142.848 12.312 142.952 12.416C143.056 12.512 143.128 12.684 143.168 12.932L143.324 14.528ZM152.951 24.692C151.935 24.692 151.151 24.408 150.599 23.84C150.055 23.264 149.783 22.456 149.783 21.416V14.288H148.439C148.295 14.288 148.171 14.244 148.067 14.156C147.963 14.06 147.911 13.92 147.911 13.736V12.692L149.891 12.404L150.455 8.864C150.495 8.728 150.563 8.62 150.659 8.54C150.755 8.452 150.883 8.408 151.043 8.408H152.363V12.428H155.759V14.288H152.363V21.236C152.363 21.676 152.471 22.012 152.687 22.244C152.903 22.476 153.191 22.592 153.551 22.592C153.751 22.592 153.923 22.568 154.067 22.52C154.211 22.464 154.335 22.408 154.439 22.352C154.543 22.288 154.631 22.232 154.703 22.184C154.783 22.128 154.859 22.1 154.931 22.1C155.075 22.1 155.191 22.18 155.279 22.34L156.047 23.6C155.647 23.952 155.175 24.224 154.631 24.416C154.087 24.6 153.527 24.692 152.951 24.692ZM164.381 14.48C164.317 14.592 164.245 14.672 164.165 14.72C164.085 14.768 163.985 14.792 163.865 14.792C163.729 14.792 163.581 14.752 163.421 14.672C163.261 14.584 163.073 14.488 162.857 14.384C162.641 14.28 162.385 14.188 162.089 14.108C161.801 14.02 161.461 13.976 161.069 13.976C160.749 13.976 160.457 14.016 160.193 14.096C159.937 14.168 159.717 14.276 159.533 14.42C159.357 14.556 159.221 14.72 159.125 14.912C159.029 15.096 158.981 15.296 158.981 15.512C158.981 15.8 159.069 16.04 159.245 16.232C159.421 16.424 159.653 16.592 159.941 16.736C160.229 16.872 160.557 16.996 160.925 17.108C161.293 17.22 161.669 17.34 162.053 17.468C162.437 17.596 162.813 17.744 163.181 17.912C163.549 18.08 163.877 18.288 164.165 18.536C164.453 18.776 164.685 19.072 164.861 19.424C165.037 19.768 165.125 20.188 165.125 20.684C165.125 21.26 165.021 21.792 164.813 22.28C164.605 22.768 164.301 23.192 163.901 23.552C163.501 23.912 163.001 24.192 162.401 24.392C161.809 24.592 161.129 24.692 160.361 24.692C159.937 24.692 159.525 24.652 159.125 24.572C158.733 24.5 158.357 24.4 157.997 24.272C157.645 24.136 157.313 23.976 157.001 23.792C156.697 23.608 156.425 23.408 156.185 23.192L156.785 22.208C156.857 22.088 156.945 21.996 157.049 21.932C157.161 21.86 157.297 21.824 157.457 21.824C157.625 21.824 157.789 21.88 157.949 21.992C158.117 22.096 158.309 22.212 158.525 22.34C158.749 22.468 159.017 22.588 159.329 22.7C159.641 22.804 160.029 22.856 160.493 22.856C160.877 22.856 161.209 22.812 161.489 22.724C161.769 22.628 162.001 22.5 162.185 22.34C162.369 22.18 162.505 22 162.593 21.8C162.681 21.592 162.725 21.372 162.725 21.14C162.725 20.828 162.637 20.572 162.461 20.372C162.285 20.172 162.049 20 161.753 19.856C161.465 19.712 161.133 19.584 160.757 19.472C160.389 19.36 160.013 19.24 159.629 19.112C159.245 18.984 158.865 18.836 158.489 18.668C158.121 18.5 157.789 18.288 157.493 18.032C157.205 17.768 156.973 17.452 156.797 17.084C156.621 16.708 156.533 16.252 156.533 15.716C156.533 15.228 156.629 14.764 156.821 14.324C157.021 13.884 157.309 13.496 157.685 13.16C158.069 12.824 158.537 12.56 159.089 12.368C159.649 12.168 160.293 12.068 161.021 12.068C161.845 12.068 162.593 12.2 163.265 12.464C163.937 12.728 164.501 13.088 164.957 13.544L164.381 14.48Z" fill="#2D2D2D"/>
<path d="M166.433 23.012C166.433 22.78 166.473 22.564 166.553 22.364C166.641 22.156 166.757 21.976 166.901 21.824C167.053 21.672 167.229 21.552 167.429 21.464C167.637 21.376 167.857 21.332 168.089 21.332C168.321 21.332 168.537 21.376 168.737 21.464C168.945 21.552 169.125 21.672 169.277 21.824C169.429 21.976 169.549 22.156 169.637 22.364C169.725 22.564 169.769 22.78 169.769 23.012C169.769 23.252 169.725 23.472 169.637 23.672C169.549 23.872 169.429 24.048 169.277 24.2C169.125 24.352 168.945 24.468 168.737 24.548C168.537 24.636 168.321 24.68 168.089 24.68C167.857 24.68 167.637 24.636 167.429 24.548C167.229 24.468 167.053 24.352 166.901 24.2C166.757 24.048 166.641 23.872 166.553 23.672C166.473 23.472 166.433 23.252 166.433 23.012Z" fill="#C62727"/>
</svg>
