<svg xmlns="http://www.w3.org/2000/svg" width="181" height="30" viewBox="0 0 181 30" fill="none"><path d="M24.5227 24.8672V26.0805H4.18604H24.5227V24.8672Z" fill="#113E8B"></path><path d="M27.6157 2.74721C27.6157 2.74721 27.6157 2.65388 27.5219 2.65388C27.5219 2.65388 27.5219 2.56055 27.4282 2.56055C27.5219 2.56055 27.6157 2.56055 27.6157 2.74721C27.6157 2.65388 27.6157 2.65388 27.6157 2.74721Z" fill="#113E8B"></path><path d="M21.805 6.2002L20.9615 7.22686L19.8369 8.4402H15.6196L17.5877 6.2002H21.805Z" fill="#113E8B"></path><path d="M21.805 6.2002L20.9615 7.22686L19.8369 8.4402H15.6196L17.5877 6.2002H21.805Z" fill="#01A3A3"></path><path d="M24.5229 5.17314H24.2417V5.0798L24.5229 4.7998V5.17314Z" fill="#113E8B"></path><path d="M27.6157 2.74665C27.6157 2.74665 27.6157 2.65332 27.522 2.65332C27.6157 2.65332 27.6157 2.65332 27.6157 2.74665C27.6157 2.65332 27.6157 2.65332 27.6157 2.74665Z" fill="#113E8B"></path><path d="M27.8032 3.21318V5.91984L27.7095 6.01318V2.83984C27.8032 2.93318 27.8032 3.11984 27.8032 3.21318Z" fill="#113E8B"></path><path d="M27.7094 2.84V5.92L24.523 9.56L11.1215 24.8667H6.90419L17.588 12.7333L19.1812 10.8667L23.211 6.29333L24.2419 5.17333H24.6168V4.8L24.3356 5.08V5.17333H4.18639V6.38667V5.17333V14.88L4.2801 14.7867L11.7775 6.29333H15.9948L13.0895 9.65333L10.8403 12.1733L4.2801 19.5467L4.18639 19.64C3.1555 20.76 1.37487 20.2 1.09372 18.8C1.09372 18.7067 1 18.52 1 18.4267V2.84C1.09372 2.65333 1.18743 2.46667 1.37487 2.28L1.46859 2.18667C1.5623 2.18667 1.5623 2.09333 1.65602 2.09333C1.74974 2.09333 1.84346 2 1.93717 2H26.6785H26.7723H26.866C26.9597 2 26.9597 2 27.0534 2C27.1471 2 27.1471 2 27.1471 2.09333C27.1471 2.09333 27.2408 2.09333 27.2408 2.18667L27.3346 2.28C27.3346 2.28 27.4283 2.28 27.4283 2.37333L27.522 2.46667L27.6157 2.56C27.7094 2.74667 27.7094 2.84 27.7094 2.84Z" fill="#113E8B"></path><path d="M24.5232 5.17314H4.18652H24.242V5.0798L24.5232 4.7998V5.17314Z" fill="#113E8B"></path><path d="M24.5232 5.17285H4.18652V6.38618V5.17285H24.5232Z" fill="#113E8B"></path><path d="M27.7095 12.7333V28.4133C27.6157 28.7867 27.2409 29.16 26.7723 29.16H1.93721C1.56234 29.0667 1.18747 28.88 1.09375 28.5067V26.64V25.0533L1.18747 24.96L4.28014 21.4133L11.8712 12.8267L14.589 9.65332H18.8063L16.0885 12.7333L5.49846 24.7733L4.46757 25.9867L4.37385 26.08H4.18642H24.5231V24.8667V26.08V16.3733L24.4294 16.4667L17.0257 24.96H12.8084L24.4294 11.7067L24.5231 11.6133C25.554 10.4933 27.3346 11.0533 27.6157 12.4533C27.7095 12.4533 27.7095 12.5467 27.7095 12.7333Z" fill="#113E8B"></path><path d="M53.294 22.8127V26.9194H35.2065V26.7327L37.5495 22.8127L45.984 8.25273H35.2065V4.05273H53.2003L50.7636 8.25273L42.3291 22.8127H53.294Z" fill="#113E8B"></path><path d="M63.3216 9.74609C58.3545 9.74609 54.3247 13.7594 54.3247 18.7061C54.3247 23.6528 58.3545 27.6661 63.3216 27.6661C65.9456 27.6661 68.3823 26.5461 70.0692 24.6794L66.9765 22.3461C66.0394 23.2794 64.7273 23.8394 63.3216 23.8394C60.9786 23.8394 59.0106 22.3461 58.4483 20.1994H72.2247C72.3184 19.7328 72.3184 19.2661 72.3184 18.7061C72.3184 13.7594 68.2886 9.74609 63.3216 9.74609ZM58.4483 17.1194C59.1043 15.0661 61.0723 13.5728 63.3216 13.5728C65.5708 13.5728 67.5388 15.0661 68.1949 17.1194H58.4483Z" fill="#113E8B"></path><path d="M100.246 9.74609C95.2794 9.74609 91.2495 13.7594 91.2495 18.7061C91.2495 23.6528 95.2794 27.6661 100.246 27.6661C102.87 27.6661 105.307 26.5461 106.994 24.6794L103.901 22.3461C102.964 23.2794 101.652 23.8394 100.246 23.8394C97.9034 23.8394 95.9354 22.3461 95.3731 20.1994H109.15C109.243 19.7328 109.243 19.2661 109.243 18.7061C109.243 13.7594 105.213 9.74609 100.246 9.74609ZM95.4668 17.1194C96.1228 15.0661 98.0909 13.5728 100.34 13.5728C102.589 13.5728 104.557 15.0661 105.213 17.1194H95.4668Z" fill="#113E8B"></path><path d="M85.0642 2.93359V10.0269C84.127 9.65359 83.0961 9.46693 82.0653 9.46693C77.192 9.46693 73.1621 13.3869 73.1621 18.3336C73.1621 23.2803 77.0982 27.2003 82.0653 27.2003C83.0961 27.2003 84.127 27.0136 85.0642 26.6403V27.0136H89.5626V2.93359H85.0642ZM82.2527 23.4669C79.5349 23.4669 77.3794 21.3203 77.3794 18.6136C77.3794 15.9069 79.5349 13.7603 82.2527 13.7603C83.2836 13.7603 84.2207 14.0403 84.9705 14.6003V22.6269C84.2207 23.1869 83.2836 23.4669 82.2527 23.4669Z" fill="#113E8B"></path><path d="M125.081 26.9197H120.021L117.678 22.9997L118.053 22.4397L118.146 22.253L120.208 18.9863L125.081 26.9197Z" fill="#01A3A3"></path><path d="M119.833 18.4261L117.771 21.6927L117.303 22.4394L114.491 26.9194H109.337L114.773 18.4261L109.806 10.3994H114.866L117.303 14.3194L117.678 14.9727L119.833 18.4261Z" fill="#113E8B"></path><path d="M124.894 10.3994L120.302 17.6794L118.24 14.3194L118.146 14.2261L117.771 13.5727L119.833 10.3994H124.894Z" fill="#01A3A3"></path><path d="M131.36 10.1201H126.862V26.9201H131.36V10.1201Z" fill="#01A3A3"></path><path d="M149.354 16.5601V26.9201H145.137V16.0001C145.137 14.5068 143.919 13.2001 142.419 13.2001H142.325H142.232C140.451 13.2001 138.952 14.6934 138.952 16.5601V26.9201H134.453V10.1201H138.952V11.4268C140.076 10.5868 141.388 10.1201 142.888 10.1201C144.575 10.1201 146.074 10.7734 147.292 11.8001C148.511 13.0134 149.354 14.6934 149.354 16.5601Z" fill="#01A3A3"></path><path d="M131.454 3.02637H126.862V7.5997H131.454V3.02637Z" fill="#01A3A3"></path><path d="M157.414 8.53318V10.3065H159.851V14.5065H157.414V26.9198H153.197V14.5065H151.322V10.3065H153.197V6.38651C153.197 4.42651 154.79 2.83984 156.758 2.83984H161.725V7.03984H158.82C158.07 7.13318 157.414 7.69318 157.414 8.53318Z" fill="#01A3A3"></path><path d="M170.066 9.65332C165.099 9.65332 161.163 13.6667 161.163 18.52C161.163 23.3733 165.192 27.3867 170.066 27.3867C174.939 27.3867 178.969 23.3733 178.969 18.52C178.969 13.6667 175.033 9.65332 170.066 9.65332ZM169.878 23.4667C167.161 23.4667 165.005 21.32 165.005 18.6133C165.005 15.9067 167.161 13.76 169.878 13.76C172.596 13.76 174.752 15.9067 174.752 18.6133C174.752 21.32 172.596 23.4667 169.878 23.4667Z" fill="#01A3A3"></path></svg>